<?xml version="1.0" encoding="UTF-8" standalone="no"?>
<svg
   xmlns:dc="http://purl.org/dc/elements/1.1/"
   xmlns:cc="http://creativecommons.org/ns#"
   xmlns:rdf="http://www.w3.org/1999/02/22-rdf-syntax-ns#"
   xmlns:svg="http://www.w3.org/2000/svg"
   xmlns="http://www.w3.org/2000/svg"
   xmlns:sodipodi="http://sodipodi.sourceforge.net/DTD/sodipodi-0.dtd"
   xmlns:inkscape="http://www.inkscape.org/namespaces/inkscape"
   inkscape:export-ydpi="181.05302"
   inkscape:export-xdpi="181.05302"
   inkscape:export-filename="D:\OneDrive\Desktop\images\111.png"
   inkscape:version="1.0 (4035a4fb49, 2020-05-01)"
   sodipodi:docname="logo.svg"
   xml:space="preserve"
   viewBox="0 0 135.75684 135.69088"
   version="1.1"
   enable-background="new 0 0 512 512"
   y="0"
   x="0"
   height="135.69087"
   width="135.75684"
   id="NexT"><defs
     id="defs7" /><sodipodi:namedview
     inkscape:current-layer="NexT"
     inkscape:window-maximized="1"
     inkscape:window-y="-9"
     inkscape:window-x="-9"
     inkscape:cy="200.24747"
     inkscape:cx="94.242231"
     inkscape:zoom="1.6914062"
     showgrid="false"
     id="namedview5"
     inkscape:window-height="1001"
     inkscape:window-width="1920"
     inkscape:pageshadow="2"
     inkscape:pageopacity="0"
     guidetolerance="10"
     gridtolerance="10"
     objecttolerance="10"
     borderopacity="1"
     bordercolor="#666666"
     pagecolor="#ffffff"
     inkscape:document-rotation="0" /><metadata
     id="metadata3390"><rdf:RDF><cc:Work
         rdf:about=""><dc:format>image/svg+xml</dc:format><dc:type
           rdf:resource="http://purl.org/dc/dcmitype/StillImage" /></cc:Work></rdf:RDF></metadata><path
     d="m -41.352846,291.5876 a 52.317669,52.766743 0 0 1 62.58425,-39.79798 52.317669,52.766743 0 0 1 39.464469,63.11815 52.317669,52.766743 0 0 1 -62.5777038,39.80845 52.317669,52.766743 0 0 1 -39.4748482,-63.11155 l 51.0272341,11.64728 z"
     sodipodi:arc-type="slice"
     sodipodi:end="3.364157"
     sodipodi:start="3.3644887"
     sodipodi:ry="52.766743"
     sodipodi:rx="52.317669"
     sodipodi:cy="303.25195"
     sodipodi:cx="9.6705551"
     sodipodi:type="arc"
     id="path840-80-0"
     style="fill:#ffffff;fill-opacity:1;stroke:#000000;stroke-width:3.11577;stroke-dasharray:0, 34.2735"
     inkscape:export-filename="D:\OneDrive\Desktop\images\path840-80.png"
     inkscape:export-xdpi="11.314347"
     inkscape:export-ydpi="11.314347" /><path
     d="m -115.09489,-175.80465 a 52.317669,52.766743 0 0 1 62.584251,-39.79799 52.317669,52.766743 0 0 1 39.46447,63.11815 52.317669,52.766743 0 0 1 -62.577704,39.80845 52.317669,52.766743 0 0 1 -39.474847,-63.11154 l 51.027233,11.64728 z"
     sodipodi:arc-type="slice"
     sodipodi:end="3.364157"
     sodipodi:start="3.3644887"
     sodipodi:ry="52.766743"
     sodipodi:rx="52.317669"
     sodipodi:cy="-164.1403"
     sodipodi:cx="-64.071487"
     sodipodi:type="arc"
     id="path840"
     style="fill:#ff6600;fill-opacity:1;stroke:#000000;stroke-width:3.11577;stroke-dasharray:0, 34.2735" /><path
     d="m -29.281295,-240.75181 -15.300633,38.76904 24.09538,-32.18481 z"
     style="fill:#008000;fill-opacity:1;stroke:#000000;stroke-width:2.051;stroke-dasharray:0, 22.561"
     id="rect842" /><path
     id="rect842-4"
     style="fill:#008000;fill-opacity:1;stroke:#000000;stroke-width:2.051;stroke-dasharray:0, 22.561"
     d="m -79.025607,-236.43318 39.696929,12.70046 -33.709389,-21.91179 z" /><path
     d="m -25.367568,-204.66974 a 50.8644,51.300999 31.958103 0 0 -14.78029,-6.1814 50.8644,51.300999 31.958103 0 1 20.84603,12.47665 50.8644,51.300999 31.958103 0 1 0.0734,72.3718 50.8644,51.300999 31.958103 0 1 -48.362179,13.89703 50.8644,51.300999 31.958103 0 0 51.256029,-13.10779 50.8644,51.300999 31.958103 0 0 -0.0734,-72.37179 50.8644,51.300999 31.958103 0 0 -8.95959,-7.0845 z m -42.223039,92.56408 a 50.8644,51.300999 31.958103 0 1 -20.84801,-12.47343 50.8644,51.300999 31.958103 0 1 -1.10751,-71.30255 l -1.87082,-1.85868 a 50.8644,51.300999 31.958103 0 0 0.0845,72.37197 50.8644,51.300999 31.958103 0 0 23.74185,13.26269 z m -21.95552,-83.77598 34.226749,34.0066 -34.216089,-34.0201 a 50.8644,51.300999 31.958103 0 0 -0.0107,0.0135 z m 0.0107,-0.0135 a 50.8644,51.300999 31.958103 0 1 1.01238,-1.05594 l 36.097619,35.8653 -36.085309,-35.87777 a 50.8644,51.300999 31.958103 0 1 48.362979,-13.88758 50.8644,51.300999 31.958103 0 0 -51.256839,13.09833 z"
     style="fill:#000000;fill-opacity:1;stroke:#000000;stroke-width:3.02922;stroke-dasharray:0, 33.3215"
     id="path840-4" /><rect
     y="-189.77382"
     x="-126.16453"
     height="74.16996"
     width="8.0016928"
     id="rect897"
     style="fill:#000000;fill-opacity:0;stroke:#000000;stroke-width:2.0968;stroke-dasharray:0, 23.0648" /><rect
     style="fill:#000000;fill-opacity:0;stroke:#000000;stroke-width:1.82757;stroke-dasharray:0, 20.1032"
     id="rect897-7"
     width="8.9190807"
     height="50.549652"
     x="0.6732254"
     y="-189.92165" /><path
     style="fill:#ff6600;fill-opacity:1;stroke:#000000;stroke-width:3.11577;stroke-dasharray:0, 34.2735"
     id="path840-8"
     sodipodi:type="arc"
     sodipodi:cx="126.61929"
     sodipodi:cy="-159.47679"
     sodipodi:rx="52.317669"
     sodipodi:ry="52.766743"
     sodipodi:start="3.3644887"
     sodipodi:end="3.364157"
     sodipodi:arc-type="slice"
     d="m 75.595893,-171.14114 a 52.317669,52.766743 0 0 1 62.584247,-39.79798 52.317669,52.766743 0 0 1 39.46447,63.11814 52.317669,52.766743 0 0 1 -62.5777,39.80845 52.317669,52.766743 0 0 1 -39.474851,-63.11154 l 51.027231,11.64728 z" /><path
     id="rect842-2"
     style="fill:#008000;fill-opacity:1;stroke:#000000;stroke-width:2.051;stroke-dasharray:0, 22.561"
     d="m 161.40948,-236.08828 -15.30064,38.76904 24.09538,-32.18481 z" /><path
     d="m 111.66517,-231.76965 39.69693,12.70046 -33.70939,-21.91179 z"
     style="fill:#008000;fill-opacity:1;stroke:#000000;stroke-width:2.051;stroke-dasharray:0, 22.561"
     id="rect842-4-6" /><path
     id="path840-4-8"
     style="fill:#000000;fill-opacity:1;stroke:#000000;stroke-width:3.02922;stroke-dasharray:0, 33.3215"
     d="m 135.77883,-208.3906 a 50.8644,51.300999 31.958103 0 0 -36.492188,15.30078 l 1.869138,1.85742 a 50.8644,51.300999 31.958103 0 1 1.01172,-1.05469 l 35.83008,35.59961 -35.81836,-35.61328 a 50.8644,51.300999 31.958103 0 1 48.36328,-13.88672 50.8644,51.300999 31.958103 0 0 -14.76367,-2.20312 z m 14.76367,2.20312 a 50.8644,51.300999 31.958103 0 1 1.97266,0.64844 l 0.0351,-0.11914 a 50.8644,51.300999 31.958103 0 0 -2.00781,-0.5293 z m -49.38672,14.95508 a 50.8644,51.300999 31.958103 0 0 -0.0117,0.0137 l 34.22657,34.00781 z m -0.0117,0.0137 -1.871088,-1.85742 a 50.8644,51.300999 31.958103 0 0 0.0859,72.37109 50.8644,51.300999 31.958103 0 0 23.720698,13.25782 50.8644,51.300999 31.958103 0 1 -20.82812,-12.46875 50.8644,51.300999 31.958103 0 1 -1.10743,-71.30274 z m 21.93555,83.77149 a 50.8644,51.300999 31.958103 0 0 0.0215,0.006 50.8644,51.300999 31.958103 0 1 -0.0215,-0.006 z m 0.0215,0.006 a 50.8644,51.300999 31.958103 0 0 0.24219,0.0723 l 0.006,-0.0137 a 50.8644,51.300999 31.958103 0 1 -0.24805,-0.0586 z" /><rect
     style="fill:#000000;fill-opacity:0;stroke:#000000;stroke-width:2.0968;stroke-dasharray:0, 23.0648"
     id="rect897-0"
     width="8.0016928"
     height="74.16996"
     x="64.526268"
     y="-185.11031" /><rect
     y="-185.25813"
     x="191.36401"
     height="50.549652"
     width="8.9190807"
     id="rect897-7-9"
     style="fill:#000000;fill-opacity:0;stroke:#000000;stroke-width:1.82757;stroke-dasharray:0, 20.1032" /><path
     id="path840-80-5"
     style="fill:#ff6600;fill-opacity:1;stroke:#000000;stroke-width:3.11577;stroke-dasharray:0, 34.2735"
     d="M 9.5592721,250.4685 A 52.317669,52.766743 0 0 0 -41.348936,291.57006 L 9.6745021,303.23412 -41.352842,291.58764 A 52.317669,52.766743 0 0 0 -1.8782279,354.69897 52.317669,52.766743 0 0 0 45.416692,341.76733 H -2.3645579 v -6.38868 H 51.162782 a 52.317669,52.766743 0 0 0 7.54882,-13.7539 H 8.9303621 v -6.38867 H 60.619812 a 52.317669,52.766743 0 0 0 0.0801,-0.34571 52.317669,52.766743 0 0 0 1.26562,-13.32617 h -41.12501 v -6.38867 h 40.5371 a 52.317669,52.766743 0 0 0 -3.98047,-13.56445 h -23.40234 v -6.38868 h 20.01757 A 52.317669,52.766743 0 0 0 21.235052,251.77319 52.317669,52.766743 0 0 0 9.5592721,250.4685 Z" /><path
     d="m 44.465302,226.62325 -15.30063,38.76904 24.09537,-32.18481 z"
     style="fill:#008000;fill-opacity:1;stroke:#000000;stroke-width:2.051;stroke-dasharray:0, 22.561"
     id="rect842-0-5"
     inkscape:export-filename="D:\OneDrive\Desktop\images\path840-80.png"
     inkscape:export-xdpi="11.314347"
     inkscape:export-ydpi="11.314347" /><path
     id="rect842-4-8-3"
     style="fill:#008000;fill-opacity:1;stroke:#000000;stroke-width:2.051;stroke-dasharray:0, 22.561"
     d="M -5.2790079,230.94188 34.417922,243.64234 0.70853211,221.73055 Z"
     inkscape:export-filename="D:\OneDrive\Desktop\images\path840-80.png"
     inkscape:export-xdpi="11.314347"
     inkscape:export-ydpi="11.314347" /><rect
     y="277.6012"
     x="-52.417923"
     height="74.16996"
     width="8.0016928"
     id="rect897-05-0"
     style="fill:#000000;fill-opacity:0;stroke:#000000;stroke-width:2.0968;stroke-dasharray:0, 23.0648"
     inkscape:export-filename="D:\OneDrive\Desktop\images\path840-80.png"
     inkscape:export-xdpi="11.314347"
     inkscape:export-ydpi="11.314347" /><rect
     style="fill:#000000;fill-opacity:0;stroke:#000000;stroke-width:1.82757;stroke-dasharray:0, 20.1032"
     id="rect897-7-3-0"
     width="8.9190807"
     height="50.549652"
     x="74.419823"
     y="277.45337"
     inkscape:export-filename="D:\OneDrive\Desktop\images\path840-80.png"
     inkscape:export-xdpi="11.314347"
     inkscape:export-ydpi="11.314347" /><path
     d="m 20.495452,255.66753 a 50.8644,51.300999 31.958103 0 0 -36.49219,15.30078 l 1.86914,1.85742 a 50.8644,51.300999 31.958103 0 1 1.01172,-1.05469 l 35.83008,35.59961 -35.81836,-35.61328 a 50.8644,51.300999 31.958103 0 1 48.36328,-13.88672 50.8644,51.300999 31.958103 0 0 -14.76367,-2.20312 z m 14.76367,2.20312 a 50.8644,51.300999 31.958103 0 1 1.97266,0.64844 l 0.0351,-0.11914 a 50.8644,51.300999 31.958103 0 0 -2.00781,-0.5293 z m -49.38672,14.95508 a 50.8644,51.300999 31.958103 0 0 -0.0117,0.0137 l 34.22657,34.00781 z m -0.0117,0.0137 -1.87109,-1.85742 a 50.8644,51.300999 31.958103 0 0 0.0859,72.37109 50.8644,51.300999 31.958103 0 0 23.7207001,13.25781 50.8644,51.300999 31.958103 0 1 -20.8281201,-12.46874 50.8644,51.300999 31.958103 0 1 -1.10743,-71.30274 z m 21.9355501,83.77148 a 50.8644,51.300999 31.958103 0 0 0.0215,0.006 50.8644,51.300999 31.958103 0 1 -0.0215,-0.006 z m 0.0215,0.006 a 50.8644,51.300999 31.958103 0 0 0.24219,0.0723 l 0.006,-0.0137 a 50.8644,51.300999 31.958103 0 1 -0.24805,-0.0586 z"
     style="fill:#000000;fill-opacity:1;stroke:#000000;stroke-width:3.02922;stroke-dasharray:0, 33.3215"
     id="path840-4-8-4" /><path
     d="M 11.06964,71.259776 A 52.317669,52.766743 0 0 1 73.653889,31.461794 52.317669,52.766743 0 0 1 113.11836,94.57994 52.317669,52.766743 0 0 1 50.540655,134.38839 52.317669,52.766743 0 0 1 11.065806,71.276846 l 51.027234,11.64728 z"
     sodipodi:arc-type="slice"
     sodipodi:end="3.364157"
     sodipodi:start="3.3644887"
     sodipodi:ry="52.766743"
     sodipodi:rx="52.317669"
     sodipodi:cy="82.924126"
     sodipodi:cx="62.09304"
     sodipodi:type="arc"
     id="path840-8-6"
     style="fill:#ff6600;fill-opacity:1;stroke:#000000;stroke-width:3.11577;stroke-dasharray:0, 34.2735" /><path
     d="M 96.883212,6.3126108 81.582572,45.081661 105.67797,12.896841 Z"
     style="fill:#55d400;fill-opacity:1;stroke:#000000;stroke-width:2.051;stroke-dasharray:0, 22.561"
     id="rect842-2-0" /><path
     id="rect842-4-6-8"
     style="fill:#55d400;fill-opacity:1;stroke:#000000;stroke-width:2.051;stroke-dasharray:0, 22.561"
     d="M 47.556972,9.2113301 87.253892,21.9118 53.544502,0 Z" /><path
     d="m 71.252562,34.010291 a 50.8644,51.300999 31.958103 0 0 -36.49218,15.30079 l 1.86914,1.85742 a 50.8644,51.300999 31.958103 0 1 1.01172,-1.05469 l 35.83007,35.5996 -35.81835,-35.61327 a 50.8644,51.300999 31.958103 0 1 48.36327,-13.88673 50.8644,51.300999 31.958103 0 0 -14.76367,-2.20312 z m 14.76367,2.20312 a 50.8644,51.300999 31.958103 0 1 1.97266,0.64844 l 0.0351,-0.11914 a 50.8644,51.300999 31.958103 0 0 -2.00781,-0.5293 z m -49.38671,14.95509 a 50.8644,51.300999 31.958103 0 0 -0.0117,0.0137 l 34.22656,34.00781 z m -0.0117,0.0137 -1.87109,-1.85742 a 50.8644,51.300999 31.958103 0 0 0.0859,72.371099 50.8644,51.300999 31.958103 0 0 23.72069,13.25782 50.8644,51.300999 31.958103 0 1 -20.82811,-12.46875 50.8644,51.300999 31.958103 0 1 -1.10743,-71.302749 z m 21.93554,83.771499 a 50.8644,51.300999 31.958103 0 0 0.0215,0.006 50.8644,51.300999 31.958103 0 1 -0.0215,-0.006 z m 0.0215,0.006 a 50.8644,51.300999 31.958103 0 0 0.24219,0.0723 l 0.006,-0.0137 a 50.8644,51.300999 31.958103 0 1 -0.24805,-0.0586 z"
     style="fill:#000000;fill-opacity:1;stroke:#000000;stroke-width:3.02922;stroke-dasharray:0, 33.3215"
     id="path840-4-8-2" /><rect
     y="57.290585"
     x="0"
     height="74.16996"
     width="8.0016928"
     id="rect897-0-7"
     style="fill:#000000;fill-opacity:0;stroke:#000000;stroke-width:2.0968;stroke-dasharray:0, 23.0648" /><rect
     style="fill:#000000;fill-opacity:0;stroke:#000000;stroke-width:1.82757;stroke-dasharray:0, 20.1032"
     id="rect897-7-9-1"
     width="8.9190807"
     height="50.549652"
     x="126.83776"
     y="57.142757" /></svg>
