<?xml version="1.0" encoding="UTF-8" standalone="no"?>
<svg
   xmlns:dc="http://purl.org/dc/elements/1.1/"
   xmlns:cc="http://creativecommons.org/ns#"
   xmlns:rdf="http://www.w3.org/1999/02/22-rdf-syntax-ns#"
   xmlns:svg="http://www.w3.org/2000/svg"
   xmlns="http://www.w3.org/2000/svg"
   xmlns:sodipodi="http://sodipodi.sourceforge.net/DTD/sodipodi-0.dtd"
   xmlns:inkscape="http://www.inkscape.org/namespaces/inkscape"
   id="NexT"
   width="135.75684"
   height="134.27094"
   x="0"
   y="0"
   enable-background="new 0 0 512 512"
   version="1.1"
   viewBox="0 0 135.75684 134.27093"
   xml:space="preserve"
   sodipodi:docname="logo.svg"
   inkscape:version="1.0 (4035a4fb49, 2020-05-01)"
   inkscape:export-filename="D:\OneDrive\Desktop\images\favicon-16x16-placid.png"
   inkscape:export-xdpi="11.314347"
   inkscape:export-ydpi="11.314347"><defs
     id="defs7" /><sodipodi:namedview
     inkscape:document-rotation="0"
     pagecolor="#ffffff"
     bordercolor="#666666"
     borderopacity="1"
     objecttolerance="10"
     gridtolerance="10"
     guidetolerance="10"
     inkscape:pageopacity="0"
     inkscape:pageshadow="2"
     inkscape:window-width="1920"
     inkscape:window-height="1001"
     id="namedview5"
     showgrid="false"
     inkscape:zoom="1.6914062"
     inkscape:cx="-17.437614"
     inkscape:cy="137.77563"
     inkscape:window-x="-9"
     inkscape:window-y="-9"
     inkscape:window-maximized="1"
     inkscape:current-layer="NexT" /><metadata
     id="metadata3390"><rdf:RDF><cc:Work
         rdf:about=""><dc:format>image/svg+xml</dc:format><dc:type
           rdf:resource="http://purl.org/dc/dcmitype/StillImage" /></cc:Work></rdf:RDF></metadata><path
     style="fill:#ff6600;fill-opacity:1;stroke:#000000;stroke-width:3.11577;stroke-dasharray:0, 34.2735"
     id="path840"
     sodipodi:type="arc"
     sodipodi:cx="-128.59775"
     sodipodi:cy="76.84066"
     sodipodi:rx="52.317669"
     sodipodi:ry="52.766743"
     sodipodi:start="3.3644887"
     sodipodi:end="3.364157"
     sodipodi:arc-type="slice"
     d="m -179.62115,65.176311 a 52.317669,52.766743 0 0 1 62.58425,-39.797983 52.317669,52.766743 0 0 1 39.46447,63.118147 52.317669,52.766743 0 0 1 -62.5777,39.808455 52.317669,52.766743 0 0 1 -39.47485,-63.111549 l 51.02723,11.647279 z" /><path
     id="rect842"
     style="fill:#008000;fill-opacity:1;stroke:#000000;stroke-width:2.051;stroke-dasharray:0, 22.561"
     d="M -93.807557,0.2291667 -109.10819,38.998207 -85.012811,6.8133966 Z" /><path
     d="m -143.55187,4.5478006 39.69693,12.7004604 -33.70939,-21.9117904 z"
     style="fill:#008000;fill-opacity:1;stroke:#000000;stroke-width:2.051;stroke-dasharray:0, 22.561"
     id="rect842-4" /><path
     id="path840-4"
     style="fill:#000000;fill-opacity:1;stroke:#000000;stroke-width:3.02922;stroke-dasharray:0, 33.3215"
     d="m -89.893831,36.311241 a 50.8644,51.300999 31.958103 0 0 -14.780289,-6.1814 50.8644,51.300999 31.958103 0 1 20.846029,12.47665 50.8644,51.300999 31.958103 0 1 0.0734,72.371799 50.8644,51.300999 31.958103 0 1 -48.362179,13.89703 50.8644,51.300999 31.958103 0 0 51.256029,-13.10779 50.8644,51.300999 31.958103 0 0 -0.0734,-72.371789 50.8644,51.300999 31.958103 0 0 -8.95959,-7.0845 z m -42.223039,92.564079 a 50.8644,51.300999 31.958103 0 1 -20.84801,-12.47343 50.8644,51.300999 31.958103 0 1 -1.10751,-71.302549 l -1.87082,-1.85868 a 50.8644,51.300999 31.958103 0 0 0.0845,72.371969 50.8644,51.300999 31.958103 0 0 23.74185,13.26269 z m -21.95552,-83.775979 34.22675,34.0066 -34.21609,-34.0201 a 50.8644,51.300999 31.958103 0 0 -0.0107,0.0135 z m 0.0107,-0.0135 a 50.8644,51.300999 31.958103 0 1 1.01238,-1.05594 l 36.09762,35.8653 -36.08531,-35.87777 a 50.8644,51.300999 31.958103 0 1 48.36298,-13.88758 50.8644,51.300999 31.958103 0 0 -51.25684,13.09833 z" /><rect
     style="fill:#000000;fill-opacity:0;stroke:#000000;stroke-width:2.0968;stroke-dasharray:0, 23.0648"
     id="rect897"
     width="8.0016928"
     height="74.16996"
     x="-190.69078"
     y="51.20715" /><rect
     y="51.059322"
     x="-63.853043"
     height="50.549652"
     width="8.9190807"
     id="rect897-7"
     style="fill:#000000;fill-opacity:0;stroke:#000000;stroke-width:1.82757;stroke-dasharray:0, 20.1032" /><path
     d="M 11.069632,69.839839 A 52.317669,52.766743 0 0 1 73.653881,30.041856 52.317669,52.766743 0 0 1 113.11835,93.160003 52.317669,52.766743 0 0 1 50.540647,132.96845 52.317669,52.766743 0 0 1 11.065799,69.856909 l 51.027234,11.64728 z"
     sodipodi:arc-type="slice"
     sodipodi:end="3.364157"
     sodipodi:start="3.3644887"
     sodipodi:ry="52.766743"
     sodipodi:rx="52.317669"
     sodipodi:cy="81.504189"
     sodipodi:cx="62.093033"
     sodipodi:type="arc"
     id="path840-8"
     style="fill:#ff6600;fill-opacity:1;stroke:#000000;stroke-width:3.11577;stroke-dasharray:0, 34.2735" /><path
     d="M 96.883229,4.8926961 81.582589,43.661736 105.67797,11.476926 Z"
     style="fill:#008000;fill-opacity:1;stroke:#000000;stroke-width:2.051;stroke-dasharray:0, 22.561"
     id="rect842-2" /><path
     id="rect842-4-6"
     style="fill:#008000;fill-opacity:1;stroke:#000000;stroke-width:2.051;stroke-dasharray:0, 22.561"
     d="M 47.138919,9.2113296 86.835849,21.91179 53.126459,0 Z" /><path
     d="m 71.252579,32.590377 a 50.8644,51.300999 31.958103 0 0 -36.49219,15.300782 l 1.86914,1.857421 a 50.8644,51.300999 31.958103 0 1 1.01172,-1.054687 l 35.83008,35.599609 -35.81836,-35.613281 a 50.8644,51.300999 31.958103 0 1 48.36328,-13.886719 50.8644,51.300999 31.958103 0 0 -14.76367,-2.203125 z m 14.76367,2.203125 a 50.8644,51.300999 31.958103 0 1 1.97266,0.648438 l 0.0351,-0.119141 a 50.8644,51.300999 31.958103 0 0 -2.00781,-0.529297 z M 36.629529,49.74858 a 50.8644,51.300999 31.958103 0 0 -0.0117,0.01367 l 34.22657,34.007813 z m -0.0117,0.01367 -1.87109,-1.857422 a 50.8644,51.300999 31.958103 0 0 0.0859,72.371092 50.8644,51.300999 31.958103 0 0 23.7207,13.25782 50.8644,51.300999 31.958103 0 1 -20.82812,-12.46875 50.8644,51.300999 31.958103 0 1 -1.10743,-71.30274 z m 21.93555,83.77149 a 50.8644,51.300999 31.958103 0 0 0.0215,0.006 50.8644,51.300999 31.958103 0 1 -0.0215,-0.006 z m 0.0215,0.006 a 50.8644,51.300999 31.958103 0 0 0.24219,0.0723 l 0.006,-0.0137 a 50.8644,51.300999 31.958103 0 1 -0.24805,-0.0586 z"
     style="fill:#000000;fill-opacity:1;stroke:#000000;stroke-width:3.02922;stroke-dasharray:0, 33.3215"
     id="path840-4-8" /><rect
     y="55.870678"
     x="0"
     height="74.16996"
     width="8.0016928"
     id="rect897-0"
     style="fill:#000000;fill-opacity:0;stroke:#000000;stroke-width:2.0968;stroke-dasharray:0, 23.0648" /><rect
     style="fill:#000000;fill-opacity:0;stroke:#000000;stroke-width:1.82757;stroke-dasharray:0, 20.1032"
     id="rect897-7-9"
     width="8.9190807"
     height="50.549652"
     x="126.83775"
     y="55.722851" /></svg>
